<?xml version="1.0" encoding="UTF-8" standalone="no"?>
<!-- Created with Inkscape (http://www.inkscape.org/) -->

<svg
   xmlns:dc="http://purl.org/dc/elements/1.1/"
   xmlns:cc="http://creativecommons.org/ns#"
   xmlns:rdf="http://www.w3.org/1999/02/22-rdf-syntax-ns#"
   xmlns:svg="http://www.w3.org/2000/svg"
   xmlns="http://www.w3.org/2000/svg"
   xmlns:sodipodi="http://sodipodi.sourceforge.net/DTD/sodipodi-0.dtd"
   xmlns:inkscape="http://www.inkscape.org/namespaces/inkscape"
   width="744.09448819"
   height="1052.3622047"
   id="svg3880"
   version="1.1"
   inkscape:version="0.47 r22583"
   sodipodi:docname="C.svg"
   inkscape:export-filename="/home/kof/data/sketchBook/2010/09-zari/metro/lay/c.png"
   inkscape:export-xdpi="90"
   inkscape:export-ydpi="90">
  <defs
     id="defs3882">
    <inkscape:perspective
       sodipodi:type="inkscape:persp3d"
       inkscape:vp_x="0 : 526.18109 : 1"
       inkscape:vp_y="0 : 1000 : 0"
       inkscape:vp_z="744.09448 : 526.18109 : 1"
       inkscape:persp3d-origin="372.04724 : 350.78739 : 1"
       id="perspective3888" />
    <inkscape:perspective
       id="perspective3875"
       inkscape:persp3d-origin="0.5 : 0.33333333 : 1"
       inkscape:vp_z="1 : 0.5 : 1"
       inkscape:vp_y="0 : 1000 : 0"
       inkscape:vp_x="0 : 0.5 : 1"
       sodipodi:type="inkscape:persp3d" />
  </defs>
  <sodipodi:namedview
     id="base"
     pagecolor="#ffffff"
     bordercolor="#666666"
     borderopacity="1.0"
     inkscape:pageopacity="0.0"
     inkscape:pageshadow="2"
     inkscape:zoom="0.35"
     inkscape:cx="286.42857"
     inkscape:cy="888.57143"
     inkscape:document-units="px"
     inkscape:current-layer="layer1"
     showgrid="false"
     inkscape:window-width="611"
     inkscape:window-height="498"
     inkscape:window-x="116"
     inkscape:window-y="108"
     inkscape:window-maximized="0" />
  <metadata
     id="metadata3885">
    <rdf:RDF>
      <cc:Work
         rdf:about="">
        <dc:format>image/svg+xml</dc:format>
        <dc:type
           rdf:resource="http://purl.org/dc/dcmitype/StillImage" />
        <dc:title></dc:title>
      </cc:Work>
    </rdf:RDF>
  </metadata>
  <g
     inkscape:label="Layer 1"
     inkscape:groupmode="layer"
     id="layer1">
    <path
       style="fill:none;stroke:#cf0000;stroke-width:3;stroke-linecap:butt;stroke-linejoin:miter;stroke-miterlimit:4;stroke-opacity:1;stroke-dasharray:none"
       d="m 273.04526,16.075579 c 0,0 7.85714,22.14285 -13.57143,35.71428 -21.42857,13.57143 -11.42857,17.85714 -25,10 -13.57143,-7.85714 -35.71428,-35.71428 -44.28571,-46.42857 -8.57143,-10.7142804 -17.85715,-15.71428043 -27.14286,-13.5714204 -9.28571,2.14285 -21.42857,10.7142804 -36.42857,11.4285704 -15,0.71428 -30.714292,1.42857 -40.714292,8.57142 -10.000003,7.14286 -15.714283,18.57143 -26.428573,34.28572 -10.71428,15.71428 -25.714279,34.28571 -24.285709,44.285711 1.42857,10 -5,19.28571 -7.14286,31.42857 -2.14286,12.14286 2.14286,11.42857 2.14286,19.28572 0,7.85714 -2.85715,27.85714 -2.14286,36.42857 0.71429,8.57143 -6.42857,26.42857 -13.57143,36.42857 -7.1428604,10 -10.0000004,13.57143 -10.7142804,22.14286 -0.71429,8.57142 -2.85715003,15.71428 -1.42858,27.85714 1.42858,12.14286 -1.42857003,37.14286 -0.71428,50.71428 0.71428,13.57143 4.28571,27.14286 11.4285704,37.85715 7.14286,10.71428 14.28571,13.57143 19.28571,22.85714 5,9.28571 17.142859,22.85714 23.571429,29.28571 6.42857,6.42858 20,8.57143 37.142863,13.57143 17.142862,5 43.571432,12.85715 54.285712,19.28572 10.71429,6.42858 28.57143,22.85718 42.14286,30.71428 13.57143,7.8572 37.14286,24.2857 57.85714,20.7143 20.71429,-3.5714 45,-16.4286 58.57143,-16.4286 13.57143,0 -2.14285,0 -2.14285,0"
       id="path2834" />
  </g>
</svg>
